<svg xmlns="http://www.w3.org/2000/svg" width="204" height="30"  fill="#fff"><path d="M0 29.335V26.38L27.446 3.92H1.182V.965h31.325V3.92L4.913 26.38h28.185v2.955zM70.991.374q3.251 0 5.467.406 2.235.388 3.676 1.201 1.441.794 2.216 2.013.776 1.219 1.127 2.863.369 1.644.425 3.712.074 2.069.074 4.581 0 2.512-.074 4.581-.055 2.069-.425 3.712-.351 1.644-1.127 2.863-.776 1.219-2.216 2.032-1.441.794-3.676 1.182-2.216.406-5.467.406H60.315q-3.251 0-5.486-.406-2.216-.388-3.657-1.182-1.441-.813-2.235-2.032-.776-1.219-1.145-2.863-.351-1.644-.406-3.712-.055-2.069-.055-4.581 0-2.512.055-4.581.055-2.069.406-3.712.369-1.644 1.145-2.863.794-1.219 2.235-2.013 1.441-.813 3.657-1.201 2.235-.406 5.486-.406zm0 26.597q2.346 0 3.953-.129 1.625-.148 2.678-.573 1.053-.425 1.625-1.219.573-.794.831-2.106.259-1.311.296-3.214.055-1.921.055-4.581 0-2.66-.055-4.562-.037-1.921-.296-3.232-.259-1.312-.831-2.106-.573-.794-1.625-1.219-1.034-.425-2.66-.554-1.607-.148-3.971-.148H60.315q-2.364 0-3.99.148-1.607.129-2.66.554-1.053.425-1.625 1.219-.573.794-.831 2.106-.259 1.311-.296 3.232-.037 1.902-.037 4.562 0 2.66.037 4.581.055 1.902.314 3.214.259 1.312.813 2.106.573.794 1.625 1.219 1.053.425 2.66.573 1.625.129 3.99.129zM147.902.965h3.546v28.37h-3.546zm23.689 28.37h-3.546V.965h6.224l26.006 24.824V.965h3.546v28.37h-4.728L171.591 3.921zM99.389.966v2.955h20.077l3.971.055c1.084.038 1.977.123 2.678.258.702.123 1.244.302 1.625.536s.659.548.831.941c.185.394.289.88.314 1.459l.055 2.069-.055 2.235c-.025.616-.129 1.146-.314 1.589a2.31 2.31 0 0 1-.831 1.071c-.382.271-.924.48-1.625.628s-1.595.252-2.678.314l-3.971.074H99.389v14.185h3.546V18.106h14.797l12.042 11.229h5.2l-12.136-11.318 2.096-.171c1.49-.172 2.715-.424 3.675-.757.973-.332 1.718-.745 2.235-1.237.529-.505.912-1.084 1.145-1.736a7.32 7.32 0 0 0 .425-2.216l.074-2.66-.055-2.53c-.025-.763-.136-1.453-.333-2.069a4.14 4.14 0 0 0-.942-1.607c-.419-.455-1.022-.838-1.81-1.145s-1.792-.536-3.011-.683c-1.207-.16-2.69-.24-4.451-.24z"/></svg>
