<svg xmlns="http://www.w3.org/2000/svg" width="487" height="80" viewBox="0 0 128.852 21.167" fill="#909090"><path d="M99.219 0v.265 19.579.265.794.265h.265 29.369v-.265V0h-29.37zm.265.265h29.104v19.579H99.483zm1.058 19.844h28.046v.794h-28.046v-.132zm-.794.265h.265v.265h-.265zm24.606-.001h3.969v.265h-3.969zm-11.377 0h4.233v.265h-4.233zm-4.763 0h4.233v.265h-4.233zm-4.762 0h4.233v.265h-4.233zm-.794 0h.265v.265h-.265zm-.794 0h.265v.265h-.265zm-.793 0h.265v.265h-.265zm-.53-10.319h.794v.794h-.794zm1.323.265h1.852v.265h-1.852zM99.748 9.26v.265 9.79.265h.265 4.762.265v-.265V9.26zm.265.265h4.762v9.79h-4.762zm.528 1.852h.794v.794h-.794zm1.323.265h2.117v.265h-2.117zm-1.323 1.058h.794v.794h-.794zm1.323.265h1.588v.265h-1.588zm-1.323 1.058h.794v.794h-.794zm1.323.264h1.058v.265h-1.058zm-1.323 1.059h.794v.794h-.794zm1.323.264h1.852v.265h-1.852zm-1.323 1.059h.794v.794h-.794zm1.323.264h1.323v.265h-1.323zm-1.323 1.059h.794v.794h-.794zm1.323.264h1.323v.265h-1.323z" fill-opacity=".85"/><path d="M66.146 0v.265.794.265 19.579.265h.265 2.117.265 26.723.265v-.265V0zm.265.265h29.104v.794H66.411zm0 1.058h2.117v19.579h-2.117zm2.381 0h26.723v19.579H68.792zM66.675.529h1.852v.265h-1.852zm24.606 0h3.969v.265h-3.969zM66.94 19.315h1.058v1.058H66.94zm0-11.113h1.058V9.26H66.94zm0-1.587h1.058v1.058H66.94zm0-1.588h1.058v1.058H66.94zm0-1.587h1.058v1.058H66.94zm0-1.588h1.058V2.91H66.94z" fill-opacity=".85"/><path d="M0 0v.265.794.265 19.579.265h.265 29.104.265v-.265V0H.265zm.265.265h29.104v.794H.265zm0 1.058h29.104v19.579H.265zM25.136.529h3.969v.265h-3.969zM11.113 18.785h1.058v1.058h-1.058zm1.587 0h1.058v1.058H12.7zm1.588 0h1.058v1.058h-1.058zm1.587 0h1.058v1.058h-1.058zm1.588 0h1.058v1.058h-1.058zM.529.529h.265v.265H.529zm9.79 17.463v.265 2.117.265h.265 8.731v-.265-2.381h-8.731zm.265.265h8.467v2.117h-8.467z" fill-opacity=".85"/><path d="M33.073 0v.265V19.05v.265 1.587.265h.265 29.104.265v-.265V0zm.265.265h29.104V19.05H33.338zm0 19.05h29.104v1.587H33.338zm24.871.793h3.969v.265h-3.969zM41.011 9.26v.265 8.996.265h.265 8.731.265v-.265-9.26zm.265.265h8.731v8.996h-8.731zm.793.794v.265.529.265h6.879.265v-.265-.529-.265h-.265zm.265.265h6.615v.529h-6.615zm-.265 1.587h.794v.794h-.794zm1.588 0h.794v.794h-.794zm1.587 0h.794v.794h-.794zm1.588 0h.794v.794h-.794zm1.587 0h.794v.794h-.794zm-6.35 1.587h.794v.794h-.794zm1.588 0h.794v.794h-.794zm1.587 0h.794v.794h-.794zm1.588 0h.794v.794h-.794zm1.587 0h.794v.794h-.794zm-6.35 1.588h.794v.794h-.794zm1.588 0h.794v.794h-.794zm1.587 0h.794v.794h-.794zm1.588 0h.794v.794h-.794zm1.587 0h.794v.794h-.794zm-6.35 1.587h.794v.794h-.794zm1.588 0h.794v.794h-.794zm1.587 0h.794v.794h-.794zm1.588 0h.794v.794h-.794zm1.587 0h.794v.794h-.794zm1.323 2.911h.529v.529h-.529zm-1.058 0h.529v.529h-.529zm-1.059 0h.529v.529h-.529zm-1.058 0h.529v.529h-.529zm-1.323-.265v.265.529.265h.794.265v-.265-.529-.265h-.265zm.265.265h.529v.529h-.529z" fill-opacity=".85"/></svg>
